<?xml version="1.0" encoding="UTF-8" standalone="no"?>
<!DOCTYPE svg PUBLIC "-//W3C//DTD SVG 1.1//EN"
 "http://www.w3.org/Graphics/SVG/1.1/DTD/svg11.dtd">
<!-- Generated by graphviz version 12.2.1 (20241206.2353)
 -->
<!-- Title: dependency&#45;cruiser output Pages: 1 -->
<svg width="825pt" height="728pt"
 viewBox="0.00 0.00 824.88 728.00" xmlns="http://www.w3.org/2000/svg" xmlns:xlink="http://www.w3.org/1999/xlink">
<g id="graph0" class="graph" transform="scale(1 1) rotate(0) translate(4 724)">
<title>dependency&#45;cruiser output</title>
<polygon fill="white" stroke="none" points="-4,4 -4,-724 820.88,-724 820.88,4 -4,4"/>
<g id="clust1" class="cluster">
<title>cluster_src</title>
<path fill="#ffffff" stroke="black" stroke-width="2" d="M20,-8C20,-8 796.88,-8 796.88,-8 802.88,-8 808.88,-14 808.88,-20 808.88,-20 808.88,-700 808.88,-700 808.88,-706 802.88,-712 796.88,-712 796.88,-712 20,-712 20,-712 14,-712 8,-706 8,-700 8,-700 8,-20 8,-20 8,-14 14,-8 20,-8"/>
<text text-anchor="middle" x="408.44" y="-699.45" font-family="Helvetica,sans-Serif" font-weight="bold" font-size="9.00">src</text>
</g>
<g id="clust2" class="cluster">
<title>cluster_src/api</title>
<path fill="#ffffff" stroke="black" stroke-width="2" d="M471.25,-18C471.25,-18 788.88,-18 788.88,-18 794.88,-18 800.88,-24 800.88,-30 800.88,-30 800.88,-107 800.88,-107 800.88,-113 794.88,-119 788.88,-119 788.88,-119 471.25,-119 471.25,-119 465.25,-119 459.25,-113 459.25,-107 459.25,-107 459.25,-30 459.25,-30 459.25,-24 465.25,-18 471.25,-18"/>
<text text-anchor="middle" x="630.06" y="-106.45" font-family="Helvetica,sans-Serif" font-weight="bold" font-size="9.00">api</text>
</g>
<g id="clust3" class="cluster">
<title>cluster_src/api/generated</title>
<path fill="#ffffff" stroke="black" stroke-width="2" d="M685.88,-37C685.88,-37 780.88,-37 780.88,-37 786.88,-37 792.88,-43 792.88,-49 792.88,-49 792.88,-80 792.88,-80 792.88,-86 786.88,-92 780.88,-92 780.88,-92 685.88,-92 685.88,-92 679.88,-92 673.88,-86 673.88,-80 673.88,-80 673.88,-49 673.88,-49 673.88,-43 679.88,-37 685.88,-37"/>
<text text-anchor="middle" x="733.38" y="-79.45" font-family="Helvetica,sans-Serif" font-weight="bold" font-size="9.00">generated</text>
</g>
<g id="clust4" class="cluster">
<title>cluster_src/auth</title>
<path fill="#ffffff" stroke="black" stroke-width="2" d="M710.38,-152C710.38,-152 756.38,-152 756.38,-152 762.38,-152 768.38,-158 768.38,-164 768.38,-164 768.38,-195 768.38,-195 768.38,-201 762.38,-207 756.38,-207 756.38,-207 710.38,-207 710.38,-207 704.38,-207 698.38,-201 698.38,-195 698.38,-195 698.38,-164 698.38,-164 698.38,-158 704.38,-152 710.38,-152"/>
<text text-anchor="middle" x="733.38" y="-194.45" font-family="Helvetica,sans-Serif" font-weight="bold" font-size="9.00">auth</text>
</g>
<g id="clust5" class="cluster">
<title>cluster_src/core</title>
<path fill="#ffffff" stroke="black" stroke-width="2" d="M335.62,-595C335.62,-595 653.88,-595 653.88,-595 659.88,-595 665.88,-601 665.88,-607 665.88,-607 665.88,-673 665.88,-673 665.88,-679 659.88,-685 653.88,-685 653.88,-685 335.62,-685 335.62,-685 329.62,-685 323.62,-679 323.62,-673 323.62,-673 323.62,-607 323.62,-607 323.62,-601 329.62,-595 335.62,-595"/>
<text text-anchor="middle" x="494.75" y="-672.45" font-family="Helvetica,sans-Serif" font-weight="bold" font-size="9.00">core</text>
</g>
<g id="clust6" class="cluster">
<title>cluster_src/core/realtime</title>
<path fill="#ffffff" stroke="black" stroke-width="2" d="M343.62,-603C343.62,-603 645.88,-603 645.88,-603 651.88,-603 657.88,-609 657.88,-615 657.88,-615 657.88,-646 657.88,-646 657.88,-652 651.88,-658 645.88,-658 645.88,-658 343.62,-658 343.62,-658 337.62,-658 331.62,-652 331.62,-646 331.62,-646 331.62,-615 331.62,-615 331.62,-609 337.62,-603 343.62,-603"/>
<text text-anchor="middle" x="494.75" y="-645.45" font-family="Helvetica,sans-Serif" font-weight="bold" font-size="9.00">realtime</text>
</g>
<g id="clust7" class="cluster">
<title>cluster_src/features</title>
<path fill="#ffffff" stroke="black" stroke-width="2" d="M303.25,-179C303.25,-179 553.5,-179 553.5,-179 559.5,-179 565.5,-185 565.5,-191 565.5,-191 565.5,-443 565.5,-443 565.5,-449 559.5,-455 553.5,-455 553.5,-455 303.25,-455 303.25,-455 297.25,-455 291.25,-449 291.25,-443 291.25,-443 291.25,-191 291.25,-191 291.25,-185 297.25,-179 303.25,-179"/>
<text text-anchor="middle" x="428.38" y="-442.45" font-family="Helvetica,sans-Serif" font-weight="bold" font-size="9.00">features</text>
</g>
<g id="clust8" class="cluster">
<title>cluster_src/features/turbine&#45;details</title>
<path fill="#ffffff" stroke="black" stroke-width="2" d="M311.25,-187C311.25,-187 545.5,-187 545.5,-187 551.5,-187 557.5,-193 557.5,-199 557.5,-199 557.5,-416 557.5,-416 557.5,-422 551.5,-428 545.5,-428 545.5,-428 311.25,-428 311.25,-428 305.25,-428 299.25,-422 299.25,-416 299.25,-416 299.25,-199 299.25,-199 299.25,-193 305.25,-187 311.25,-187"/>
<text text-anchor="middle" x="428.38" y="-415.45" font-family="Helvetica,sans-Serif" font-weight="bold" font-size="9.00">turbine&#45;details</text>
</g>
<g id="clust9" class="cluster">
<title>cluster_src/layouts</title>
<path fill="#ffffff" stroke="black" stroke-width="2" d="M186.38,-425C186.38,-425 255.12,-425 255.12,-425 261.12,-425 267.12,-431 267.12,-437 267.12,-437 267.12,-468 267.12,-468 267.12,-474 261.12,-480 255.12,-480 255.12,-480 186.38,-480 186.38,-480 180.38,-480 174.38,-474 174.38,-468 174.38,-468 174.38,-437 174.38,-437 174.38,-431 180.38,-425 186.38,-425"/>
<text text-anchor="middle" x="220.75" y="-467.45" font-family="Helvetica,sans-Serif" font-weight="bold" font-size="9.00">layouts</text>
</g>
<g id="clust10" class="cluster">
<title>cluster_src/pages</title>
<path fill="#ffffff" stroke="black" stroke-width="2" d="M170.25,-171C170.25,-171 271.25,-171 271.25,-171 277.25,-171 283.25,-177 283.25,-183 283.25,-183 283.25,-307 283.25,-307 283.25,-313 277.25,-319 271.25,-319 271.25,-319 170.25,-319 170.25,-319 164.25,-319 158.25,-313 158.25,-307 158.25,-307 158.25,-183 158.25,-183 158.25,-177 164.25,-171 170.25,-171"/>
<text text-anchor="middle" x="220.75" y="-306.45" font-family="Helvetica,sans-Serif" font-weight="bold" font-size="9.00">pages</text>
</g>
<g id="clust11" class="cluster">
<title>cluster_src/ui</title>
<path fill="#ffffff" stroke="black" stroke-width="2" d="M468.12,-501C468.12,-501 520.38,-501 520.38,-501 526.38,-501 532.38,-507 532.38,-513 532.38,-513 532.38,-575 532.38,-575 532.38,-581 526.38,-587 520.38,-587 520.38,-587 468.12,-587 468.12,-587 462.12,-587 456.12,-581 456.12,-575 456.12,-575 456.12,-513 456.12,-513 456.12,-507 462.12,-501 468.12,-501"/>
<text text-anchor="middle" x="494.25" y="-574.45" font-family="Helvetica,sans-Serif" font-weight="bold" font-size="9.00">ui</text>
</g>
<g id="clust12" class="cluster">
<title>cluster_src/utils</title>
<path fill="#ffffff" stroke="black" stroke-width="2" d="M590,-345C590,-345 636,-345 636,-345 642,-345 648,-351 648,-357 648,-357 648,-388 648,-388 648,-394 642,-400 636,-400 636,-400 590,-400 590,-400 584,-400 578,-394 578,-388 578,-388 578,-357 578,-357 578,-351 584,-345 590,-345"/>
<text text-anchor="middle" x="613" y="-387.45" font-family="Helvetica,sans-Serif" font-weight="bold" font-size="9.00">utils</text>
</g>
<!-- src/api/api.ts -->
<g id="node1" class="node">
<title>src/api/api.ts</title>
<g id="a_node1"><a xlink:href="src/api/api.ts" xlink:title="api.ts">
<path fill="#ddfeff" stroke="black" d="M514.83,-91.62C514.83,-91.62 473.67,-91.62 473.67,-91.62 470.46,-91.62 467.25,-88.42 467.25,-85.21 467.25,-85.21 467.25,-78.79 467.25,-78.79 467.25,-75.58 470.46,-72.38 473.67,-72.38 473.67,-72.38 514.83,-72.38 514.83,-72.38 518.04,-72.38 521.25,-75.58 521.25,-78.79 521.25,-78.79 521.25,-85.21 521.25,-85.21 521.25,-88.42 518.04,-91.62 514.83,-91.62"/>
<text text-anchor="start" x="483.38" y="-79.08" font-family="Helvetica,sans-Serif" font-size="9.00">api.ts</text>
</a>
</g>
</g>
<!-- src/api/config.ts -->
<g id="node2" class="node">
<title>src/api/config.ts</title>
<g id="a_node2"><a xlink:href="src/api/config.ts" xlink:title="config.ts">
<path fill="#ddfeff" stroke="black" d="M633.58,-45.62C633.58,-45.62 592.42,-45.62 592.42,-45.62 589.21,-45.62 586,-42.42 586,-39.21 586,-39.21 586,-32.79 586,-32.79 586,-29.58 589.21,-26.38 592.42,-26.38 592.42,-26.38 633.58,-26.38 633.58,-26.38 636.79,-26.38 640,-29.58 640,-32.79 640,-32.79 640,-39.21 640,-39.21 640,-42.42 636.79,-45.62 633.58,-45.62"/>
<text text-anchor="start" x="595.38" y="-33.08" font-family="Helvetica,sans-Serif" font-size="9.00">config.ts</text>
</a>
</g>
</g>
<!-- src/api/api.ts&#45;&gt;src/api/config.ts -->
<g id="edge1" class="edge">
<title>src/api/api.ts&#45;&gt;src/api/config.ts</title>
<path fill="none" stroke="#000000" stroke-width="2" stroke-opacity="0.200000" d="M521.59,-81.73C535.69,-80.42 552.74,-76.88 565.5,-68 571.07,-64.13 568.48,-59.57 573.5,-55 575.31,-53.35 577.29,-51.82 579.36,-50.39"/>
<polygon fill="#000000" fill-opacity="0.200000" stroke="#000000" stroke-width="2" stroke-opacity="0.200000" points="580.04,-52.43 584.08,-47.52 577.86,-48.84 580.04,-52.43"/>
</g>
<!-- src/api/customFetch.ts -->
<g id="node3" class="node">
<title>src/api/customFetch.ts</title>
<g id="a_node3"><a xlink:href="src/api/customFetch.ts" xlink:title="customFetch.ts">
<path fill="#ddfeff" stroke="black" d="M646.08,-91.62C646.08,-91.62 579.92,-91.62 579.92,-91.62 576.71,-91.62 573.5,-88.42 573.5,-85.21 573.5,-85.21 573.5,-78.79 573.5,-78.79 573.5,-75.58 576.71,-72.38 579.92,-72.38 579.92,-72.38 646.08,-72.38 646.08,-72.38 649.29,-72.38 652.5,-75.58 652.5,-78.79 652.5,-78.79 652.5,-85.21 652.5,-85.21 652.5,-88.42 649.29,-91.62 646.08,-91.62"/>
<text text-anchor="start" x="581.5" y="-79.08" font-family="Helvetica,sans-Serif" font-size="9.00">customFetch.ts</text>
</a>
</g>
</g>
<!-- src/api/api.ts&#45;&gt;src/api/customFetch.ts -->
<g id="edge2" class="edge">
<title>src/api/api.ts&#45;&gt;src/api/customFetch.ts</title>
<path fill="none" stroke="#000000" stroke-width="2" stroke-opacity="0.200000" d="M521.74,-82C534.33,-82 549.78,-82 564.31,-82"/>
<polygon fill="#000000" fill-opacity="0.200000" stroke="#000000" stroke-width="2" stroke-opacity="0.200000" points="564.18,-84.1 570.18,-82 564.18,-79.9 564.18,-84.1"/>
</g>
<!-- src/api/generated/generated&#45;ts&#45;client.ts -->
<g id="node4" class="node">
<title>src/api/generated/generated&#45;ts&#45;client.ts</title>
<g id="a_node4"><a xlink:href="src/api/generated/generated-ts-client.ts" xlink:title="generated&#45;ts&#45;client.ts">
<path fill="#ddfeff" stroke="black" d="M778.46,-64.62C778.46,-64.62 688.29,-64.62 688.29,-64.62 685.08,-64.62 681.88,-61.42 681.88,-58.21 681.88,-58.21 681.88,-51.79 681.88,-51.79 681.88,-48.58 685.08,-45.38 688.29,-45.38 688.29,-45.38 778.46,-45.38 778.46,-45.38 781.67,-45.38 784.88,-48.58 784.88,-51.79 784.88,-51.79 784.88,-58.21 784.88,-58.21 784.88,-61.42 781.67,-64.62 778.46,-64.62"/>
<text text-anchor="start" x="689.88" y="-52.08" font-family="Helvetica,sans-Serif" font-size="9.00">generated&#45;ts&#45;client.ts</text>
</a>
</g>
</g>
<!-- src/api/api.ts&#45;&gt;src/api/generated/generated&#45;ts&#45;client.ts -->
<g id="edge3" class="edge">
<title>src/api/api.ts&#45;&gt;src/api/generated/generated&#45;ts&#45;client.ts</title>
<path fill="none" stroke="#000000" stroke-width="2" stroke-opacity="0.200000" d="M521.67,-77.05C534.87,-74.49 551.06,-71.24 565.5,-68 569.08,-67.2 569.88,-66.57 573.5,-66 606.18,-60.82 643.03,-58.08 673.01,-56.63"/>
<polygon fill="#000000" fill-opacity="0.200000" stroke="#000000" stroke-width="2" stroke-opacity="0.200000" points="672.75,-58.75 678.65,-56.38 672.56,-54.55 672.75,-58.75"/>
</g>
<!-- src/api/customFetch.ts&#45;&gt;src/api/generated/generated&#45;ts&#45;client.ts -->
<g id="edge5" class="edge">
<title>src/api/customFetch.ts&#45;&gt;src/api/generated/generated&#45;ts&#45;client.ts</title>
<path fill="none" stroke="#000000" stroke-width="2" stroke-opacity="0.200000" d="M652.76,-73.16C661.34,-71.2 670.58,-69.09 679.62,-67.03"/>
<polygon fill="#000000" fill-opacity="0.200000" stroke="#000000" stroke-width="2" stroke-opacity="0.200000" points="679.86,-69.13 685.24,-65.75 678.92,-65.04 679.86,-69.13"/>
</g>
<!-- src/auth/jwt.ts -->
<g id="node5" class="node">
<title>src/auth/jwt.ts</title>
<g id="a_node5"><a xlink:href="src/auth/jwt.ts" xlink:title="jwt.ts">
<path fill="#ddfeff" stroke="black" d="M753.96,-179.62C753.96,-179.62 712.79,-179.62 712.79,-179.62 709.58,-179.62 706.38,-176.42 706.38,-173.21 706.38,-173.21 706.38,-166.79 706.38,-166.79 706.38,-163.58 709.58,-160.38 712.79,-160.38 712.79,-160.38 753.96,-160.38 753.96,-160.38 757.17,-160.38 760.38,-163.58 760.38,-166.79 760.38,-166.79 760.38,-173.21 760.38,-173.21 760.38,-176.42 757.17,-179.62 753.96,-179.62"/>
<text text-anchor="start" x="722.5" y="-167.07" font-family="Helvetica,sans-Serif" font-size="9.00">jwt.ts</text>
</a>
</g>
</g>
<!-- src/api/customFetch.ts&#45;&gt;src/auth/jwt.ts -->
<g id="edge4" class="edge">
<title>src/api/customFetch.ts&#45;&gt;src/auth/jwt.ts</title>
<path fill="none" stroke="#000000" stroke-width="2" stroke-opacity="0.200000" d="M627.58,-92.09C648.27,-107.48 687.84,-136.89 711.99,-154.85"/>
<polygon fill="#000000" fill-opacity="0.200000" stroke="#000000" stroke-width="2" stroke-opacity="0.200000" points="710.46,-156.32 716.52,-158.22 712.96,-152.95 710.46,-156.32"/>
</g>
<!-- src/core/realtime/hooks.ts -->
<g id="node6" class="node">
<title>src/core/realtime/hooks.ts</title>
<g id="a_node6"><a xlink:href="src/core/realtime/hooks.ts" xlink:title="hooks.ts">
<path fill="#ddfeff" stroke="black" d="M387.21,-630.62C387.21,-630.62 346.04,-630.62 346.04,-630.62 342.83,-630.62 339.62,-627.42 339.62,-624.21 339.62,-624.21 339.62,-617.79 339.62,-617.79 339.62,-614.58 342.83,-611.38 346.04,-611.38 346.04,-611.38 387.21,-611.38 387.21,-611.38 390.42,-611.38 393.62,-614.58 393.62,-617.79 393.62,-617.79 393.62,-624.21 393.62,-624.21 393.62,-627.42 390.42,-630.62 387.21,-630.62"/>
<text text-anchor="start" x="349.38" y="-618.08" font-family="Helvetica,sans-Serif" font-size="9.00">hooks.ts</text>
</a>
</g>
</g>
<!-- src/core/realtime/hooks.ts&#45;&gt;src/api/api.ts -->
<g id="edge7" class="edge">
<title>src/core/realtime/hooks.ts&#45;&gt;src/api/api.ts</title>
<path fill="none" stroke="#000000" stroke-width="2" stroke-opacity="0.200000" d="M371.69,-610.92C382.77,-582.93 413.48,-501.68 426,-431 445.18,-322.76 409.6,-289.93 439,-184 447.86,-152.07 467.88,-118.86 480.97,-99.33"/>
<polygon fill="#000000" fill-opacity="0.200000" stroke="#000000" stroke-width="2" stroke-opacity="0.200000" points="482.57,-100.71 484.22,-94.57 479.1,-98.34 482.57,-100.71"/>
</g>
<!-- src/core/realtime/useLiveQuery.ts -->
<g id="node7" class="node">
<title>src/core/realtime/useLiveQuery.ts</title>
<g id="a_node7"><a xlink:href="src/core/realtime/useLiveQuery.ts" xlink:title="useLiveQuery.ts">
<path fill="#ddfeff" stroke="black" d="M528.08,-630.62C528.08,-630.62 460.42,-630.62 460.42,-630.62 457.21,-630.62 454,-627.42 454,-624.21 454,-624.21 454,-617.79 454,-617.79 454,-614.58 457.21,-611.38 460.42,-611.38 460.42,-611.38 528.08,-611.38 528.08,-611.38 531.29,-611.38 534.5,-614.58 534.5,-617.79 534.5,-617.79 534.5,-624.21 534.5,-624.21 534.5,-627.42 531.29,-630.62 528.08,-630.62"/>
<text text-anchor="start" x="462" y="-618.08" font-family="Helvetica,sans-Serif" font-size="9.00">useLiveQuery.ts</text>
</a>
</g>
</g>
<!-- src/core/realtime/hooks.ts&#45;&gt;src/core/realtime/useLiveQuery.ts -->
<g id="edge6" class="edge">
<title>src/core/realtime/hooks.ts&#45;&gt;src/core/realtime/useLiveQuery.ts</title>
<path fill="none" stroke="#000000" stroke-width="2" stroke-opacity="0.200000" d="M393.96,-621C408.66,-621 427.45,-621 444.72,-621"/>
<polygon fill="#000000" fill-opacity="0.200000" stroke="#000000" stroke-width="2" stroke-opacity="0.200000" points="444.55,-623.1 450.55,-621 444.55,-618.9 444.55,-623.1"/>
</g>
<!-- src/core/realtime/useStream.tsx -->
<g id="node8" class="node">
<title>src/core/realtime/useStream.tsx</title>
<g id="a_node8"><a xlink:href="src/core/realtime/useStream.tsx" xlink:title="useStream.tsx">
<path fill="#bbfeff" stroke="black" d="M643.46,-630.62C643.46,-630.62 582.54,-630.62 582.54,-630.62 579.33,-630.62 576.12,-627.42 576.12,-624.21 576.12,-624.21 576.12,-617.79 576.12,-617.79 576.12,-614.58 579.33,-611.38 582.54,-611.38 582.54,-611.38 643.46,-611.38 643.46,-611.38 646.67,-611.38 649.88,-614.58 649.88,-617.79 649.88,-617.79 649.88,-624.21 649.88,-624.21 649.88,-627.42 646.67,-630.62 643.46,-630.62"/>
<text text-anchor="start" x="584.12" y="-618.08" font-family="Helvetica,sans-Serif" font-size="9.00">useStream.tsx</text>
</a>
</g>
</g>
<!-- src/core/realtime/useLiveQuery.ts&#45;&gt;src/core/realtime/useStream.tsx -->
<g id="edge8" class="edge">
<title>src/core/realtime/useLiveQuery.ts&#45;&gt;src/core/realtime/useStream.tsx</title>
<path fill="none" stroke="#000000" stroke-width="2" stroke-opacity="0.200000" d="M534.78,-621C545.11,-621 556.33,-621 566.93,-621"/>
<polygon fill="#000000" fill-opacity="0.200000" stroke="#000000" stroke-width="2" stroke-opacity="0.200000" points="566.63,-623.1 572.63,-621 566.63,-618.9 566.63,-623.1"/>
</g>
<!-- src/features/turbine&#45;details/ActionsTable.tsx -->
<g id="node9" class="node">
<title>src/features/turbine&#45;details/ActionsTable.tsx</title>
<g id="a_node9"><a xlink:href="src/features/turbine-details/ActionsTable.tsx" xlink:title="ActionsTable.tsx">
<path fill="#bbfeff" stroke="black" d="M401.58,-276.62C401.58,-276.62 331.67,-276.62 331.67,-276.62 328.46,-276.62 325.25,-273.42 325.25,-270.21 325.25,-270.21 325.25,-263.79 325.25,-263.79 325.25,-260.58 328.46,-257.38 331.67,-257.38 331.67,-257.38 401.58,-257.38 401.58,-257.38 404.79,-257.38 408,-260.58 408,-263.79 408,-263.79 408,-270.21 408,-270.21 408,-273.42 404.79,-276.62 401.58,-276.62"/>
<text text-anchor="start" x="333.25" y="-264.07" font-family="Helvetica,sans-Serif" font-size="9.00">ActionsTable.tsx</text>
</a>
</g>
</g>
<!-- src/utils/time.ts -->
<g id="node10" class="node">
<title>src/utils/time.ts</title>
<g id="a_node10"><a xlink:href="src/utils/time.ts" xlink:title="time.ts">
<path fill="#ddfeff" stroke="black" d="M633.58,-372.62C633.58,-372.62 592.42,-372.62 592.42,-372.62 589.21,-372.62 586,-369.42 586,-366.21 586,-366.21 586,-359.79 586,-359.79 586,-356.58 589.21,-353.38 592.42,-353.38 592.42,-353.38 633.58,-353.38 633.58,-353.38 636.79,-353.38 640,-356.58 640,-359.79 640,-359.79 640,-366.21 640,-366.21 640,-369.42 636.79,-372.62 633.58,-372.62"/>
<text text-anchor="start" x="599.12" y="-360.07" font-family="Helvetica,sans-Serif" font-size="9.00">time.ts</text>
</a>
</g>
</g>
<!-- src/features/turbine&#45;details/ActionsTable.tsx&#45;&gt;src/utils/time.ts -->
<g id="edge9" class="edge">
<title>src/features/turbine&#45;details/ActionsTable.tsx&#45;&gt;src/utils/time.ts</title>
<path fill="none" stroke="#000000" stroke-width="2" stroke-opacity="0.200000" d="M408.34,-276.7C414.3,-278.34 420.34,-280.13 426,-282 489.58,-303.05 504.68,-310.95 565.5,-339 572.11,-342.05 579.14,-345.54 585.68,-348.9"/>
<polygon fill="#000000" fill-opacity="0.200000" stroke="#000000" stroke-width="2" stroke-opacity="0.200000" points="584.65,-350.74 590.95,-351.64 586.6,-347.01 584.65,-350.74"/>
</g>
<!-- src/features/turbine&#45;details/AlertHistoryPanel.tsx -->
<g id="node11" class="node">
<title>src/features/turbine&#45;details/AlertHistoryPanel.tsx</title>
<g id="a_node11"><a xlink:href="src/features/turbine-details/AlertHistoryPanel.tsx" xlink:title="AlertHistoryPanel.tsx">
<path fill="#bbfeff" stroke="black" d="M410.96,-369.62C410.96,-369.62 322.29,-369.62 322.29,-369.62 319.08,-369.62 315.88,-366.42 315.88,-363.21 315.88,-363.21 315.88,-356.79 315.88,-356.79 315.88,-353.58 319.08,-350.38 322.29,-350.38 322.29,-350.38 410.96,-350.38 410.96,-350.38 414.17,-350.38 417.38,-353.58 417.38,-356.79 417.38,-356.79 417.38,-363.21 417.38,-363.21 417.38,-366.42 414.17,-369.62 410.96,-369.62"/>
<text text-anchor="start" x="323.88" y="-357.07" font-family="Helvetica,sans-Serif" font-size="9.00">AlertHistoryPanel.tsx</text>
</a>
</g>
</g>
<!-- src/features/turbine&#45;details/AlertHistoryPanel.tsx&#45;&gt;src/utils/time.ts -->
<g id="edge11" class="edge">
<title>src/features/turbine&#45;details/AlertHistoryPanel.tsx&#45;&gt;src/utils/time.ts</title>
<path fill="none" stroke="#000000" stroke-width="2" stroke-opacity="0.200000" d="M416.61,-349.88C424.08,-348.68 431.72,-347.66 439,-347 494.99,-341.94 510.05,-337.73 565.5,-347 570.02,-347.76 574.68,-348.9 579.23,-350.23"/>
<polygon fill="#000000" fill-opacity="0.200000" stroke="#000000" stroke-width="2" stroke-opacity="0.200000" points="578.54,-352.21 584.9,-352.05 579.83,-348.21 578.54,-352.21"/>
</g>
<!-- src/ui/Badges.tsx -->
<g id="node12" class="node">
<title>src/ui/Badges.tsx</title>
<g id="a_node12"><a xlink:href="src/ui/Badges.tsx" xlink:title="Badges.tsx">
<path fill="#bbfeff" stroke="black" d="M517.96,-528.62C517.96,-528.62 470.54,-528.62 470.54,-528.62 467.33,-528.62 464.12,-525.42 464.12,-522.21 464.12,-522.21 464.12,-515.79 464.12,-515.79 464.12,-512.58 467.33,-509.38 470.54,-509.38 470.54,-509.38 517.96,-509.38 517.96,-509.38 521.17,-509.38 524.38,-512.58 524.38,-515.79 524.38,-515.79 524.38,-522.21 524.38,-522.21 524.38,-525.42 521.17,-528.62 517.96,-528.62"/>
<text text-anchor="start" x="472.12" y="-516.08" font-family="Helvetica,sans-Serif" font-size="9.00">Badges.tsx</text>
</a>
</g>
</g>
<!-- src/features/turbine&#45;details/AlertHistoryPanel.tsx&#45;&gt;src/ui/Badges.tsx -->
<g id="edge10" class="edge">
<title>src/features/turbine&#45;details/AlertHistoryPanel.tsx&#45;&gt;src/ui/Badges.tsx</title>
<path fill="none" stroke="#000000" stroke-width="2" stroke-opacity="0.200000" d="M417.67,-368.04C420.77,-369.94 423.6,-372.23 426,-375 461.39,-415.91 406.77,-452.57 439,-496 443.24,-501.72 449.19,-506.03 455.6,-509.27"/>
<polygon fill="#000000" fill-opacity="0.200000" stroke="#000000" stroke-width="2" stroke-opacity="0.200000" points="454.75,-511.19 461.09,-511.64 456.41,-507.34 454.75,-511.19"/>
</g>
<!-- src/features/turbine&#45;details/ControlsPanel.tsx -->
<g id="node13" class="node">
<title>src/features/turbine&#45;details/ControlsPanel.tsx</title>
<g id="a_node13"><a xlink:href="src/features/turbine-details/ControlsPanel.tsx" xlink:title="ControlsPanel.tsx">
<path fill="#bbfeff" stroke="black" d="M403.83,-400.62C403.83,-400.62 329.42,-400.62 329.42,-400.62 326.21,-400.62 323,-397.42 323,-394.21 323,-394.21 323,-387.79 323,-387.79 323,-384.58 326.21,-381.38 329.42,-381.38 329.42,-381.38 403.83,-381.38 403.83,-381.38 407.04,-381.38 410.25,-384.58 410.25,-387.79 410.25,-387.79 410.25,-394.21 410.25,-394.21 410.25,-397.42 407.04,-400.62 403.83,-400.62"/>
<text text-anchor="start" x="331" y="-388.07" font-family="Helvetica,sans-Serif" font-size="9.00">ControlsPanel.tsx</text>
</a>
</g>
</g>
<!-- src/features/turbine&#45;details/TelemetryChart.tsx -->
<g id="node14" class="node">
<title>src/features/turbine&#45;details/TelemetryChart.tsx</title>
<g id="a_node14"><a xlink:href="src/features/turbine-details/TelemetryChart.tsx" xlink:title="TelemetryChart.tsx">
<path fill="#bbfeff" stroke="black" d="M406.83,-307.62C406.83,-307.62 326.42,-307.62 326.42,-307.62 323.21,-307.62 320,-304.42 320,-301.21 320,-301.21 320,-294.79 320,-294.79 320,-291.58 323.21,-288.38 326.42,-288.38 326.42,-288.38 406.83,-288.38 406.83,-288.38 410.04,-288.38 413.25,-291.58 413.25,-294.79 413.25,-294.79 413.25,-301.21 413.25,-301.21 413.25,-304.42 410.04,-307.62 406.83,-307.62"/>
<text text-anchor="start" x="328" y="-295.07" font-family="Helvetica,sans-Serif" font-size="9.00">TelemetryChart.tsx</text>
</a>
</g>
</g>
<!-- src/features/turbine&#45;details/useTelemetryHistory.ts -->
<g id="node15" class="node">
<title>src/features/turbine&#45;details/useTelemetryHistory.ts</title>
<g id="a_node15"><a xlink:href="src/features/turbine-details/useTelemetryHistory.ts" xlink:title="useTelemetryHistory.ts">
<path fill="#ddfeff" stroke="black" d="M543.08,-372.62C543.08,-372.62 445.42,-372.62 445.42,-372.62 442.21,-372.62 439,-369.42 439,-366.21 439,-366.21 439,-359.79 439,-359.79 439,-356.58 442.21,-353.38 445.42,-353.38 445.42,-353.38 543.08,-353.38 543.08,-353.38 546.29,-353.38 549.5,-356.58 549.5,-359.79 549.5,-359.79 549.5,-366.21 549.5,-366.21 549.5,-369.42 546.29,-372.62 543.08,-372.62"/>
<text text-anchor="start" x="447" y="-360.07" font-family="Helvetica,sans-Serif" font-size="9.00">useTelemetryHistory.ts</text>
</a>
</g>
</g>
<!-- src/features/turbine&#45;details/TelemetryChart.tsx&#45;&gt;src/features/turbine&#45;details/useTelemetryHistory.ts -->
<g id="edge12" class="edge">
<title>src/features/turbine&#45;details/TelemetryChart.tsx&#45;&gt;src/features/turbine&#45;details/useTelemetryHistory.ts</title>
<path fill="none" stroke="#000000" stroke-width="2" stroke-opacity="0.200000" d="M413.49,-307.95C417.8,-309.43 422.03,-311.11 426,-313 444.61,-321.89 463.23,-336.26 476.14,-347.32"/>
<polygon fill="#000000" fill-opacity="0.200000" stroke="#000000" stroke-width="2" stroke-opacity="0.200000" points="474.52,-348.69 480.42,-351.07 477.29,-345.54 474.52,-348.69"/>
</g>
<!-- src/features/turbine&#45;details/useTelemetryHistory.ts&#45;&gt;src/api/api.ts -->
<g id="edge15" class="edge">
<title>src/features/turbine&#45;details/useTelemetryHistory.ts&#45;&gt;src/api/api.ts</title>
<path fill="none" stroke="#000000" stroke-width="2" stroke-opacity="0.200000" d="M494.25,-352.94C494.25,-268.89 494.25,-184.85 494.25,-100.8"/>
<polygon fill="#000000" fill-opacity="0.200000" stroke="#000000" stroke-width="2" stroke-opacity="0.200000" points="496.35,-100.91 494.25,-94.91 492.15,-100.91 496.35,-100.91"/>
</g>
<!-- src/features/turbine&#45;details/useTelemetryHistory.ts&#45;&gt;src/api/customFetch.ts -->
<g id="edge16" class="edge">
<title>src/features/turbine&#45;details/useTelemetryHistory.ts&#45;&gt;src/api/customFetch.ts</title>
<path fill="none" stroke="#000000" stroke-width="2" stroke-opacity="0.200000" d="M499.41,-353C516.57,-311.69 582.09,-153.98 604.46,-100.14"/>
<polygon fill="#000000" fill-opacity="0.200000" stroke="#000000" stroke-width="2" stroke-opacity="0.200000" points="606.37,-101.02 606.73,-94.68 602.49,-99.41 606.37,-101.02"/>
</g>
<!-- src/features/turbine&#45;details/useTelemetryHistory.ts&#45;&gt;src/utils/time.ts -->
<g id="edge17" class="edge">
<title>src/features/turbine&#45;details/useTelemetryHistory.ts&#45;&gt;src/utils/time.ts</title>
<path fill="none" stroke="#000000" stroke-width="2" stroke-opacity="0.200000" d="M549.86,-363C559.02,-363 568.29,-363 576.79,-363"/>
<polygon fill="#000000" fill-opacity="0.200000" stroke="#000000" stroke-width="2" stroke-opacity="0.200000" points="576.63,-365.1 582.63,-363 576.63,-360.9 576.63,-365.1"/>
</g>
<!-- src/features/turbine&#45;details/types.ts -->
<g id="node16" class="node">
<title>src/features/turbine&#45;details/types.ts</title>
<g id="a_node16"><a xlink:href="src/features/turbine-details/types.ts" xlink:title="types.ts">
<path fill="#ccffcc" stroke="black" d="M387.21,-338.62C387.21,-338.62 346.04,-338.62 346.04,-338.62 342.83,-338.62 339.62,-335.42 339.62,-332.21 339.62,-332.21 339.62,-325.79 339.62,-325.79 339.62,-322.58 342.83,-319.38 346.04,-319.38 346.04,-319.38 387.21,-319.38 387.21,-319.38 390.42,-319.38 393.62,-322.58 393.62,-325.79 393.62,-325.79 393.62,-332.21 393.62,-332.21 393.62,-335.42 390.42,-338.62 387.21,-338.62"/>
<text text-anchor="start" x="350.88" y="-326.07" font-family="Helvetica,sans-Serif" font-size="9.00">types.ts</text>
</a>
</g>
</g>
<!-- src/features/turbine&#45;details/useAlertHistory.ts -->
<g id="node17" class="node">
<title>src/features/turbine&#45;details/useAlertHistory.ts</title>
<g id="a_node17"><a xlink:href="src/features/turbine-details/useAlertHistory.ts" xlink:title="useAlertHistory.ts">
<path fill="#ddfeff" stroke="black" d="M404.96,-214.62C404.96,-214.62 328.29,-214.62 328.29,-214.62 325.08,-214.62 321.88,-211.42 321.88,-208.21 321.88,-208.21 321.88,-201.79 321.88,-201.79 321.88,-198.58 325.08,-195.38 328.29,-195.38 328.29,-195.38 404.96,-195.38 404.96,-195.38 408.17,-195.38 411.38,-198.58 411.38,-201.79 411.38,-201.79 411.38,-208.21 411.38,-208.21 411.38,-211.42 408.17,-214.62 404.96,-214.62"/>
<text text-anchor="start" x="329.88" y="-202.07" font-family="Helvetica,sans-Serif" font-size="9.00">useAlertHistory.ts</text>
</a>
</g>
</g>
<!-- src/features/turbine&#45;details/useAlertHistory.ts&#45;&gt;src/api/api.ts -->
<g id="edge13" class="edge">
<title>src/features/turbine&#45;details/useAlertHistory.ts&#45;&gt;src/api/api.ts</title>
<path fill="none" stroke="#000000" stroke-width="2" stroke-opacity="0.200000" d="M383.84,-194.97C396.38,-186.67 413.63,-174 426,-160 433.52,-151.49 432.11,-147.03 439,-138 450.01,-123.56 464.38,-108.88 475.56,-98.17"/>
<polygon fill="#000000" fill-opacity="0.200000" stroke="#000000" stroke-width="2" stroke-opacity="0.200000" points="476.93,-99.77 479.85,-94.13 474.05,-96.71 476.93,-99.77"/>
</g>
<!-- src/features/turbine&#45;details/useAlertHistory.ts&#45;&gt;src/api/customFetch.ts -->
<g id="edge14" class="edge">
<title>src/features/turbine&#45;details/useAlertHistory.ts&#45;&gt;src/api/customFetch.ts</title>
<path fill="none" stroke="#000000" stroke-width="2" stroke-opacity="0.200000" d="M380.08,-195.02C397.08,-181.51 426.84,-158.38 439,-152 491.58,-124.41 511.45,-133.59 565.5,-109 573.36,-105.42 581.62,-100.91 588.95,-96.59"/>
<polygon fill="#000000" fill-opacity="0.200000" stroke="#000000" stroke-width="2" stroke-opacity="0.200000" points="589.84,-98.51 593.9,-93.61 587.67,-94.91 589.84,-98.51"/>
</g>
<!-- src/features/turbine&#45;details/useTurbineCommands.ts -->
<g id="node18" class="node">
<title>src/features/turbine&#45;details/useTurbineCommands.ts</title>
<g id="a_node18"><a xlink:href="src/features/turbine-details/useTurbineCommands.ts" xlink:title="useTurbineCommands.ts">
<path fill="#ddfeff" stroke="black" d="M419.58,-245.62C419.58,-245.62 313.67,-245.62 313.67,-245.62 310.46,-245.62 307.25,-242.42 307.25,-239.21 307.25,-239.21 307.25,-232.79 307.25,-232.79 307.25,-229.58 310.46,-226.38 313.67,-226.38 313.67,-226.38 419.58,-226.38 419.58,-226.38 422.79,-226.38 426,-229.58 426,-232.79 426,-232.79 426,-239.21 426,-239.21 426,-242.42 422.79,-245.62 419.58,-245.62"/>
<text text-anchor="start" x="315.25" y="-233.07" font-family="Helvetica,sans-Serif" font-size="9.00">useTurbineCommands.ts</text>
</a>
</g>
</g>
<!-- src/features/turbine&#45;details/useTurbineCommands.ts&#45;&gt;src/api/api.ts -->
<g id="edge18" class="edge">
<title>src/features/turbine&#45;details/useTurbineCommands.ts&#45;&gt;src/api/api.ts</title>
<path fill="none" stroke="#000000" stroke-width="2" stroke-opacity="0.200000" d="M420.33,-225.89C422.38,-224.45 424.28,-222.83 426,-221 447.33,-198.23 426.2,-180.46 439,-152 448.24,-131.46 464.67,-111.51 477.03,-98.2"/>
<polygon fill="#000000" fill-opacity="0.200000" stroke="#000000" stroke-width="2" stroke-opacity="0.200000" points="478.35,-99.85 480.98,-94.06 475.31,-96.95 478.35,-99.85"/>
</g>
<!-- src/features/turbine&#45;details/useTurbineCommands.ts&#45;&gt;src/api/customFetch.ts -->
<g id="edge19" class="edge">
<title>src/features/turbine&#45;details/useTurbineCommands.ts&#45;&gt;src/api/customFetch.ts</title>
<path fill="none" stroke="#000000" stroke-width="2" stroke-opacity="0.200000" d="M412.7,-225.88C417.26,-224.43 421.76,-222.8 426,-221 493.03,-192.5 509.87,-182.01 565.5,-135 578.26,-124.22 590.64,-109.86 599.41,-98.81"/>
<polygon fill="#000000" fill-opacity="0.200000" stroke="#000000" stroke-width="2" stroke-opacity="0.200000" points="600.99,-100.2 603.01,-94.17 597.67,-97.62 600.99,-100.2"/>
</g>
<!-- src/features/turbine&#45;details/useTurbineCommands.ts&#45;&gt;src/auth/jwt.ts -->
<g id="edge20" class="edge">
<title>src/features/turbine&#45;details/useTurbineCommands.ts&#45;&gt;src/auth/jwt.ts</title>
<path fill="none" stroke="#000000" stroke-width="2" stroke-opacity="0.200000" d="M420.52,-245.94C422.52,-247.42 424.36,-249.1 426,-251 444.64,-272.68 419.56,-358.04 439,-379 507.95,-453.35 584.93,-464.07 665.88,-403 700.81,-376.64 722.89,-239.18 729.93,-188.66"/>
<polygon fill="#000000" fill-opacity="0.200000" stroke="#000000" stroke-width="2" stroke-opacity="0.200000" points="731.97,-189.25 730.7,-183.03 727.81,-188.69 731.97,-189.25"/>
</g>
<!-- src/index.css -->
<g id="node19" class="node">
<title>src/index.css</title>
<g id="a_node19"><a xlink:href="src/index.css" xlink:title="index.css">
<path fill="#ffffcc" stroke="black" d="M142.96,-291.62C142.96,-291.62 101.79,-291.62 101.79,-291.62 98.58,-291.62 95.38,-288.42 95.38,-285.21 95.38,-285.21 95.38,-278.79 95.38,-278.79 95.38,-275.58 98.58,-272.38 101.79,-272.38 101.79,-272.38 142.96,-272.38 142.96,-272.38 146.17,-272.38 149.38,-275.58 149.38,-278.79 149.38,-278.79 149.38,-285.21 149.38,-285.21 149.38,-288.42 146.17,-291.62 142.96,-291.62"/>
<text text-anchor="start" x="103.62" y="-279.07" font-family="Helvetica,sans-Serif" font-size="9.00">index.css</text>
</a>
</g>
</g>
<!-- src/layouts/MainLayout.tsx -->
<g id="node20" class="node">
<title>src/layouts/MainLayout.tsx</title>
<g id="a_node20"><a xlink:href="src/layouts/MainLayout.tsx" xlink:title="MainLayout.tsx">
<path fill="#bbfeff" stroke="black" d="M252.71,-452.62C252.71,-452.62 188.79,-452.62 188.79,-452.62 185.58,-452.62 182.38,-449.42 182.38,-446.21 182.38,-446.21 182.38,-439.79 182.38,-439.79 182.38,-436.58 185.58,-433.38 188.79,-433.38 188.79,-433.38 252.71,-433.38 252.71,-433.38 255.92,-433.38 259.12,-436.58 259.12,-439.79 259.12,-439.79 259.12,-446.21 259.12,-446.21 259.12,-449.42 255.92,-452.62 252.71,-452.62"/>
<text text-anchor="start" x="190.38" y="-440.07" font-family="Helvetica,sans-Serif" font-size="9.00">MainLayout.tsx</text>
</a>
</g>
</g>
<!-- src/ui/TopBar.tsx -->
<g id="node21" class="node">
<title>src/ui/TopBar.tsx</title>
<g id="a_node21"><a xlink:href="src/ui/TopBar.tsx" xlink:title="TopBar.tsx">
<path fill="#bbfeff" stroke="black" d="M517.96,-559.62C517.96,-559.62 470.54,-559.62 470.54,-559.62 467.33,-559.62 464.12,-556.42 464.12,-553.21 464.12,-553.21 464.12,-546.79 464.12,-546.79 464.12,-543.58 467.33,-540.38 470.54,-540.38 470.54,-540.38 517.96,-540.38 517.96,-540.38 521.17,-540.38 524.38,-543.58 524.38,-546.79 524.38,-546.79 524.38,-553.21 524.38,-553.21 524.38,-556.42 521.17,-559.62 517.96,-559.62"/>
<text text-anchor="start" x="472.12" y="-547.08" font-family="Helvetica,sans-Serif" font-size="9.00">TopBar.tsx</text>
</a>
</g>
</g>
<!-- src/layouts/MainLayout.tsx&#45;&gt;src/ui/TopBar.tsx -->
<g id="edge21" class="edge">
<title>src/layouts/MainLayout.tsx&#45;&gt;src/ui/TopBar.tsx</title>
<path fill="none" stroke="#000000" stroke-width="2" stroke-opacity="0.200000" d="M259.32,-444.28C268.29,-446.37 277.04,-450.21 283.25,-457 301.11,-476.53 272.84,-496.99 291.25,-516 333.46,-559.59 409.14,-560.18 454.92,-555.72"/>
<polygon fill="#000000" fill-opacity="0.200000" stroke="#000000" stroke-width="2" stroke-opacity="0.200000" points="454.91,-557.83 460.65,-555.1 454.46,-553.66 454.91,-557.83"/>
</g>
<!-- src/ui/TopBar.tsx&#45;&gt;src/auth/jwt.ts -->
<g id="edge54" class="edge">
<title>src/ui/TopBar.tsx&#45;&gt;src/auth/jwt.ts</title>
<path fill="none" stroke="#000000" stroke-width="2" stroke-opacity="0.200000" d="M524.82,-549.7C563.57,-547.59 630.72,-537.68 665.88,-496 705.91,-448.54 725.6,-250.86 730.88,-188.76"/>
<polygon fill="#000000" fill-opacity="0.200000" stroke="#000000" stroke-width="2" stroke-opacity="0.200000" points="732.96,-189.17 731.36,-183.01 728.77,-188.82 732.96,-189.17"/>
</g>
<!-- src/ui/TopBar.tsx&#45;&gt;src/core/realtime/useStream.tsx -->
<g id="edge55" class="edge">
<title>src/ui/TopBar.tsx&#45;&gt;src/core/realtime/useStream.tsx</title>
<path fill="none" stroke="#000000" stroke-width="2" stroke-opacity="0.200000" d="M511.48,-559.87C531.32,-571.94 565.07,-592.46 587.94,-606.37"/>
<polygon fill="#000000" fill-opacity="0.200000" stroke="#000000" stroke-width="2" stroke-opacity="0.200000" points="586.72,-608.09 592.94,-609.41 588.91,-604.5 586.72,-608.09"/>
</g>
<!-- src/main.tsx -->
<g id="node22" class="node">
<title>src/main.tsx</title>
<g id="a_node22"><a xlink:href="src/main.tsx" xlink:title="main.tsx">
<path fill="#bbfeff" stroke="black" d="M69.33,-275.62C69.33,-275.62 28.17,-275.62 28.17,-275.62 24.96,-275.62 21.75,-272.42 21.75,-269.21 21.75,-269.21 21.75,-262.79 21.75,-262.79 21.75,-259.58 24.96,-256.38 28.17,-256.38 28.17,-256.38 69.33,-256.38 69.33,-256.38 72.54,-256.38 75.75,-259.58 75.75,-262.79 75.75,-262.79 75.75,-269.21 75.75,-269.21 75.75,-272.42 72.54,-275.62 69.33,-275.62"/>
<text text-anchor="start" x="31.5" y="-263.07" font-family="Helvetica,sans-Serif" font-size="9.00">main.tsx</text>
</a>
</g>
</g>
<!-- src/main.tsx&#45;&gt;src/api/config.ts -->
<g id="edge24" class="edge">
<title>src/main.tsx&#45;&gt;src/api/config.ts</title>
<path fill="none" stroke="#000000" stroke-width="2" stroke-opacity="0.200000" d="M51.44,-255.93C59.91,-209.35 101.98,-17 219.75,-17 219.75,-17 219.75,-17 367.62,-17 455.64,-17 478.3,-13.04 565.5,-25 569.2,-25.51 573.03,-26.18 576.84,-26.93"/>
<polygon fill="#000000" fill-opacity="0.200000" stroke="#000000" stroke-width="2" stroke-opacity="0.200000" points="576.34,-28.97 582.65,-28.19 577.23,-24.87 576.34,-28.97"/>
</g>
<!-- src/main.tsx&#45;&gt;src/core/realtime/useStream.tsx -->
<g id="edge25" class="edge">
<title>src/main.tsx&#45;&gt;src/core/realtime/useStream.tsx</title>
<path fill="none" stroke="#000000" stroke-width="2" stroke-opacity="0.200000" d="M51.92,-276.11C65.1,-336.22 136.64,-644 219.75,-644 219.75,-644 219.75,-644 367.62,-644 455.62,-644 478.98,-653.05 565.5,-637 569.9,-636.18 574.45,-635.03 578.9,-633.71"/>
<polygon fill="#000000" fill-opacity="0.200000" stroke="#000000" stroke-width="2" stroke-opacity="0.200000" points="579.32,-635.79 584.39,-631.95 578.03,-631.79 579.32,-635.79"/>
</g>
<!-- src/main.tsx&#45;&gt;src/index.css -->
<g id="edge22" class="edge">
<title>src/main.tsx&#45;&gt;src/index.css</title>
<path fill="none" stroke="#000000" stroke-width="2" stroke-opacity="0.200000" d="M76.01,-271.87C79.42,-272.63 82.95,-273.42 86.47,-274.2"/>
<polygon fill="#000000" fill-opacity="0.200000" stroke="#000000" stroke-width="2" stroke-opacity="0.200000" points="85.85,-276.22 92.16,-275.47 86.76,-272.12 85.85,-276.22"/>
</g>
<!-- src/router.tsx -->
<g id="node23" class="node">
<title>src/router.tsx</title>
<g id="a_node23"><a xlink:href="src/router.tsx" xlink:title="router.tsx">
<path fill="#bbfeff" stroke="black" d="M143.83,-260.62C143.83,-260.62 100.92,-260.62 100.92,-260.62 97.71,-260.62 94.5,-257.42 94.5,-254.21 94.5,-254.21 94.5,-247.79 94.5,-247.79 94.5,-244.58 97.71,-241.38 100.92,-241.38 100.92,-241.38 143.83,-241.38 143.83,-241.38 147.04,-241.38 150.25,-244.58 150.25,-247.79 150.25,-247.79 150.25,-254.21 150.25,-254.21 150.25,-257.42 147.04,-260.62 143.83,-260.62"/>
<text text-anchor="start" x="102.5" y="-248.07" font-family="Helvetica,sans-Serif" font-size="9.00">router.tsx</text>
</a>
</g>
</g>
<!-- src/main.tsx&#45;&gt;src/router.tsx -->
<g id="edge23" class="edge">
<title>src/main.tsx&#45;&gt;src/router.tsx</title>
<path fill="none" stroke="#000000" stroke-width="2" stroke-opacity="0.200000" d="M76.01,-260.5C79.06,-259.86 82.21,-259.2 85.36,-258.54"/>
<polygon fill="#000000" fill-opacity="0.200000" stroke="#000000" stroke-width="2" stroke-opacity="0.200000" points="85.75,-260.61 91.19,-257.32 84.89,-256.5 85.75,-260.61"/>
</g>
<!-- src/router.tsx&#45;&gt;src/layouts/MainLayout.tsx -->
<g id="edge49" class="edge">
<title>src/router.tsx&#45;&gt;src/layouts/MainLayout.tsx</title>
<path fill="none" stroke="#000000" stroke-width="2" stroke-opacity="0.200000" d="M145.4,-260.84C147.25,-262.35 148.92,-264.06 150.25,-266 164.48,-286.72 150.67,-298.03 158.25,-322 170.58,-361.02 194.49,-402.79 208.59,-425.61"/>
<polygon fill="#000000" fill-opacity="0.200000" stroke="#000000" stroke-width="2" stroke-opacity="0.200000" points="206.72,-426.59 211.69,-430.56 210.28,-424.36 206.72,-426.59"/>
</g>
<!-- src/pages/LoginPage.tsx -->
<g id="node24" class="node">
<title>src/pages/LoginPage.tsx</title>
<g id="a_node24"><a xlink:href="src/pages/LoginPage.tsx" xlink:title="LoginPage.tsx">
<path fill="#bbfeff" stroke="black" d="M250.46,-229.62C250.46,-229.62 191.04,-229.62 191.04,-229.62 187.83,-229.62 184.62,-226.42 184.62,-223.21 184.62,-223.21 184.62,-216.79 184.62,-216.79 184.62,-213.58 187.83,-210.38 191.04,-210.38 191.04,-210.38 250.46,-210.38 250.46,-210.38 253.67,-210.38 256.88,-213.58 256.88,-216.79 256.88,-216.79 256.88,-223.21 256.88,-223.21 256.88,-226.42 253.67,-229.62 250.46,-229.62"/>
<text text-anchor="start" x="192.62" y="-217.07" font-family="Helvetica,sans-Serif" font-size="9.00">LoginPage.tsx</text>
</a>
</g>
</g>
<!-- src/router.tsx&#45;&gt;src/pages/LoginPage.tsx -->
<g id="edge50" class="edge">
<title>src/router.tsx&#45;&gt;src/pages/LoginPage.tsx</title>
<path fill="none" stroke="#000000" stroke-width="2" stroke-opacity="0.200000" d="M143.39,-241.03C148.19,-238.86 153.34,-236.71 158.25,-235 163.83,-233.06 169.78,-231.27 175.69,-229.66"/>
<polygon fill="#000000" fill-opacity="0.200000" stroke="#000000" stroke-width="2" stroke-opacity="0.200000" points="176.08,-231.73 181.36,-228.19 175.02,-227.66 176.08,-231.73"/>
</g>
<!-- src/pages/RegisterPage.tsx -->
<g id="node25" class="node">
<title>src/pages/RegisterPage.tsx</title>
<g id="a_node25"><a xlink:href="src/pages/RegisterPage.tsx" xlink:title="RegisterPage.tsx">
<path fill="#bbfeff" stroke="black" d="M255.71,-198.62C255.71,-198.62 185.79,-198.62 185.79,-198.62 182.58,-198.62 179.38,-195.42 179.38,-192.21 179.38,-192.21 179.38,-185.79 179.38,-185.79 179.38,-182.58 182.58,-179.38 185.79,-179.38 185.79,-179.38 255.71,-179.38 255.71,-179.38 258.92,-179.38 262.12,-182.58 262.12,-185.79 262.12,-185.79 262.12,-192.21 262.12,-192.21 262.12,-195.42 258.92,-198.62 255.71,-198.62"/>
<text text-anchor="start" x="187.38" y="-186.07" font-family="Helvetica,sans-Serif" font-size="9.00">RegisterPage.tsx</text>
</a>
</g>
</g>
<!-- src/router.tsx&#45;&gt;src/pages/RegisterPage.tsx -->
<g id="edge51" class="edge">
<title>src/router.tsx&#45;&gt;src/pages/RegisterPage.tsx</title>
<path fill="none" stroke="#000000" stroke-width="2" stroke-opacity="0.200000" d="M128.06,-241.12C133.7,-230.32 144.2,-213.33 158.25,-204 162.04,-201.48 166.22,-199.39 170.56,-197.64"/>
<polygon fill="#000000" fill-opacity="0.200000" stroke="#000000" stroke-width="2" stroke-opacity="0.200000" points="171.2,-199.64 176.18,-195.69 169.82,-195.68 171.2,-199.64"/>
</g>
<!-- src/pages/TurbineDetailsPage.tsx -->
<g id="node26" class="node">
<title>src/pages/TurbineDetailsPage.tsx</title>
<g id="a_node26"><a xlink:href="src/pages/TurbineDetailsPage.tsx" xlink:title="TurbineDetailsPage.tsx">
<path fill="#bbfeff" stroke="black" d="M268.83,-260.62C268.83,-260.62 172.67,-260.62 172.67,-260.62 169.46,-260.62 166.25,-257.42 166.25,-254.21 166.25,-254.21 166.25,-247.79 166.25,-247.79 166.25,-244.58 169.46,-241.38 172.67,-241.38 172.67,-241.38 268.83,-241.38 268.83,-241.38 272.04,-241.38 275.25,-244.58 275.25,-247.79 275.25,-247.79 275.25,-254.21 275.25,-254.21 275.25,-257.42 272.04,-260.62 268.83,-260.62"/>
<text text-anchor="start" x="174.25" y="-248.07" font-family="Helvetica,sans-Serif" font-size="9.00">TurbineDetailsPage.tsx</text>
</a>
</g>
</g>
<!-- src/router.tsx&#45;&gt;src/pages/TurbineDetailsPage.tsx -->
<g id="edge52" class="edge">
<title>src/router.tsx&#45;&gt;src/pages/TurbineDetailsPage.tsx</title>
<path fill="none" stroke="#000000" stroke-width="2" stroke-opacity="0.200000" d="M150.73,-251C152.83,-251 154.99,-251 157.19,-251"/>
<polygon fill="#000000" fill-opacity="0.200000" stroke="#000000" stroke-width="2" stroke-opacity="0.200000" points="156.83,-253.1 162.83,-251 156.83,-248.9 156.83,-253.1"/>
</g>
<!-- src/pages/TurbinePage.tsx -->
<g id="node27" class="node">
<title>src/pages/TurbinePage.tsx</title>
<g id="a_node27"><a xlink:href="src/pages/TurbinePage.tsx" xlink:title="TurbinePage.tsx">
<path fill="#bbfeff" stroke="black" d="M254.96,-291.62C254.96,-291.62 186.54,-291.62 186.54,-291.62 183.33,-291.62 180.12,-288.42 180.12,-285.21 180.12,-285.21 180.12,-278.79 180.12,-278.79 180.12,-275.58 183.33,-272.38 186.54,-272.38 186.54,-272.38 254.96,-272.38 254.96,-272.38 258.17,-272.38 261.38,-275.58 261.38,-278.79 261.38,-278.79 261.38,-285.21 261.38,-285.21 261.38,-288.42 258.17,-291.62 254.96,-291.62"/>
<text text-anchor="start" x="188.12" y="-279.07" font-family="Helvetica,sans-Serif" font-size="9.00">TurbinePage.tsx</text>
</a>
</g>
</g>
<!-- src/router.tsx&#45;&gt;src/pages/TurbinePage.tsx -->
<g id="edge53" class="edge">
<title>src/router.tsx&#45;&gt;src/pages/TurbinePage.tsx</title>
<path fill="none" stroke="#000000" stroke-width="2" stroke-opacity="0.200000" d="M143.39,-260.97C148.19,-263.14 153.34,-265.29 158.25,-267 162.42,-268.45 166.81,-269.82 171.23,-271.09"/>
<polygon fill="#000000" fill-opacity="0.200000" stroke="#000000" stroke-width="2" stroke-opacity="0.200000" points="170.47,-273.06 176.81,-272.62 171.57,-269.01 170.47,-273.06"/>
</g>
<!-- src/pages/LoginPage.tsx&#45;&gt;src/api/api.ts -->
<g id="edge26" class="edge">
<title>src/pages/LoginPage.tsx&#45;&gt;src/api/api.ts</title>
<path fill="none" stroke="#000000" stroke-width="2" stroke-opacity="0.200000" d="M257.09,-218.92C266.94,-216.83 276.72,-212.72 283.25,-205 298.94,-186.46 274.04,-113.14 291.25,-96 334.8,-52.63 413.09,-61.97 458.35,-72.25"/>
<polygon fill="#000000" fill-opacity="0.200000" stroke="#000000" stroke-width="2" stroke-opacity="0.200000" points="457.67,-74.25 464,-73.6 458.65,-70.16 457.67,-74.25"/>
</g>
<!-- src/pages/LoginPage.tsx&#45;&gt;src/api/customFetch.ts -->
<g id="edge27" class="edge">
<title>src/pages/LoginPage.tsx&#45;&gt;src/api/customFetch.ts</title>
<path fill="none" stroke="#000000" stroke-width="2" stroke-opacity="0.200000" d="M257.13,-218.24C266.75,-216.09 276.39,-212.12 283.25,-205 295.53,-192.26 279.78,-179.47 291.25,-166 336.78,-112.53 370.6,-125.9 439,-110 494.01,-97.21 510.3,-109.94 565.5,-98 569.56,-97.12 573.76,-96 577.9,-94.76"/>
<polygon fill="#000000" fill-opacity="0.200000" stroke="#000000" stroke-width="2" stroke-opacity="0.200000" points="578.29,-96.84 583.36,-93 577,-92.84 578.29,-96.84"/>
</g>
<!-- src/pages/LoginPage.tsx&#45;&gt;src/auth/jwt.ts -->
<g id="edge28" class="edge">
<title>src/pages/LoginPage.tsx&#45;&gt;src/auth/jwt.ts</title>
<path fill="none" stroke="#000000" stroke-width="2" stroke-opacity="0.200000" d="M257.08,-217.37C266.47,-215.17 276,-211.4 283.25,-205 290.74,-198.39 283.12,-189.8 291.25,-184 355.86,-137.95 604.64,-157.24 697.31,-166.3"/>
<polygon fill="#000000" fill-opacity="0.200000" stroke="#000000" stroke-width="2" stroke-opacity="0.200000" points="696.85,-168.36 703.03,-166.86 697.27,-164.18 696.85,-168.36"/>
</g>
<!-- src/pages/RegisterPage.tsx&#45;&gt;src/api/api.ts -->
<g id="edge29" class="edge">
<title>src/pages/RegisterPage.tsx&#45;&gt;src/api/api.ts</title>
<path fill="none" stroke="#000000" stroke-width="2" stroke-opacity="0.200000" d="M262.47,-187.23C270.39,-185 277.89,-181.22 283.25,-175 298.81,-156.93 273.77,-84.22 291.25,-68 338.24,-24.4 420.77,-50.01 464.37,-68.36"/>
<polygon fill="#000000" fill-opacity="0.200000" stroke="#000000" stroke-width="2" stroke-opacity="0.200000" points="463.44,-70.24 469.78,-70.71 465.11,-66.39 463.44,-70.24"/>
</g>
<!-- src/pages/RegisterPage.tsx&#45;&gt;src/api/customFetch.ts -->
<g id="edge30" class="edge">
<title>src/pages/RegisterPage.tsx&#45;&gt;src/api/customFetch.ts</title>
<path fill="none" stroke="#000000" stroke-width="2" stroke-opacity="0.200000" d="M262.54,-187.29C270.46,-185.06 277.94,-181.26 283.25,-175 302.54,-152.25 269.54,-61.46 291.25,-41 313.43,-20.1 538.35,-27.17 565.5,-41 570.89,-43.74 569.3,-47.66 573.5,-52 578.55,-57.22 584.54,-62.32 590.27,-66.78"/>
<polygon fill="#000000" fill-opacity="0.200000" stroke="#000000" stroke-width="2" stroke-opacity="0.200000" points="588.82,-68.31 594.88,-70.24 591.35,-64.96 588.82,-68.31"/>
</g>
<!-- src/pages/RegisterPage.tsx&#45;&gt;src/auth/jwt.ts -->
<g id="edge31" class="edge">
<title>src/pages/RegisterPage.tsx&#45;&gt;src/auth/jwt.ts</title>
<path fill="none" stroke="#000000" stroke-width="2" stroke-opacity="0.200000" d="M262.49,-183.48C269.71,-181.47 276.93,-178.73 283.25,-175 287.86,-172.28 286.37,-168.19 291.25,-166 430.51,-103.46 620.33,-140.73 697.56,-160.3"/>
<polygon fill="#000000" fill-opacity="0.200000" stroke="#000000" stroke-width="2" stroke-opacity="0.200000" points="696.71,-162.25 703.04,-161.72 697.76,-158.19 696.71,-162.25"/>
</g>
<!-- src/pages/TurbineDetailsPage.tsx&#45;&gt;src/api/api.ts -->
<g id="edge33" class="edge">
<title>src/pages/TurbineDetailsPage.tsx&#45;&gt;src/api/api.ts</title>
<path fill="none" stroke="#000000" stroke-width="2" stroke-opacity="0.200000" d="M275.6,-242.58C278.43,-240.75 281.02,-238.58 283.25,-236 295.52,-221.82 279.04,-166.23 291.25,-152 331.48,-105.13 371.69,-147.41 426,-118 432.91,-114.26 432.43,-110.32 439,-106 445.19,-101.94 452.18,-98.26 459.03,-95.08"/>
<polygon fill="#000000" fill-opacity="0.200000" stroke="#000000" stroke-width="2" stroke-opacity="0.200000" points="459.55,-97.15 464.19,-92.8 457.85,-93.31 459.55,-97.15"/>
</g>
<!-- src/pages/TurbineDetailsPage.tsx&#45;&gt;src/api/customFetch.ts -->
<g id="edge34" class="edge">
<title>src/pages/TurbineDetailsPage.tsx&#45;&gt;src/api/customFetch.ts</title>
<path fill="none" stroke="#000000" stroke-width="2" stroke-opacity="0.200000" d="M275.68,-242.65C278.49,-240.8 281.06,-238.61 283.25,-236 300.04,-216.07 276.21,-140.28 291.25,-119 332.55,-60.56 368.93,-69.52 439,-55 494.05,-43.59 511.21,-40.38 565.5,-55 574.69,-57.48 583.94,-62.26 591.75,-67.13"/>
<polygon fill="#000000" fill-opacity="0.200000" stroke="#000000" stroke-width="2" stroke-opacity="0.200000" points="590.32,-68.71 596.48,-70.27 592.64,-65.21 590.32,-68.71"/>
</g>
<!-- src/pages/TurbineDetailsPage.tsx&#45;&gt;src/core/realtime/hooks.ts -->
<g id="edge35" class="edge">
<title>src/pages/TurbineDetailsPage.tsx&#45;&gt;src/core/realtime/hooks.ts</title>
<path fill="none" stroke="#000000" stroke-width="2" stroke-opacity="0.200000" d="M275.5,-259.1C278.4,-261 281.03,-263.27 283.25,-266 298.43,-284.61 284.98,-458.82 291.25,-482 304.02,-529.2 335.19,-578.22 352.86,-603.53"/>
<polygon fill="#000000" fill-opacity="0.200000" stroke="#000000" stroke-width="2" stroke-opacity="0.200000" points="351.14,-604.74 356.33,-608.42 354.57,-602.31 351.14,-604.74"/>
</g>
<!-- src/pages/TurbineDetailsPage.tsx&#45;&gt;src/features/turbine&#45;details/ActionsTable.tsx -->
<g id="edge36" class="edge">
<title>src/pages/TurbineDetailsPage.tsx&#45;&gt;src/features/turbine&#45;details/ActionsTable.tsx</title>
<path fill="none" stroke="#000000" stroke-width="2" stroke-opacity="0.200000" d="M275.73,-257C288.95,-258.47 303.03,-260.04 316.03,-261.48"/>
<polygon fill="#000000" fill-opacity="0.200000" stroke="#000000" stroke-width="2" stroke-opacity="0.200000" points="315.63,-263.55 321.82,-262.13 316.09,-259.38 315.63,-263.55"/>
</g>
<!-- src/pages/TurbineDetailsPage.tsx&#45;&gt;src/utils/time.ts -->
<g id="edge32" class="edge">
<title>src/pages/TurbineDetailsPage.tsx&#45;&gt;src/utils/time.ts</title>
<path fill="none" stroke="#000000" stroke-width="2" stroke-opacity="0.200000" d="M275.74,-259.3C278.54,-261.16 281.08,-263.37 283.25,-266 294.93,-280.16 277.96,-418.34 291.25,-431 335.38,-473.04 511.6,-459.44 565.5,-431 585.35,-420.53 598.34,-397.34 605.42,-380.96"/>
<polygon fill="#000000" fill-opacity="0.200000" stroke="#000000" stroke-width="2" stroke-opacity="0.200000" points="607.33,-381.85 607.62,-375.5 603.43,-380.28 607.33,-381.85"/>
</g>
<!-- src/pages/TurbineDetailsPage.tsx&#45;&gt;src/features/turbine&#45;details/AlertHistoryPanel.tsx -->
<g id="edge37" class="edge">
<title>src/pages/TurbineDetailsPage.tsx&#45;&gt;src/features/turbine&#45;details/AlertHistoryPanel.tsx</title>
<path fill="none" stroke="#000000" stroke-width="2" stroke-opacity="0.200000" d="M275.58,-259.44C278.42,-261.26 281.01,-263.43 283.25,-266 306.42,-292.62 267.55,-318.85 291.25,-345 295.63,-349.83 301.1,-353.35 307.06,-355.9"/>
<polygon fill="#000000" fill-opacity="0.200000" stroke="#000000" stroke-width="2" stroke-opacity="0.200000" points="306.24,-357.83 312.6,-357.8 307.61,-353.86 306.24,-357.83"/>
</g>
<!-- src/pages/TurbineDetailsPage.tsx&#45;&gt;src/ui/Badges.tsx -->
<g id="edge43" class="edge">
<title>src/pages/TurbineDetailsPage.tsx&#45;&gt;src/ui/Badges.tsx</title>
<path fill="none" stroke="#000000" stroke-width="2" stroke-opacity="0.200000" d="M275.49,-259.1C278.39,-261 281.02,-263.28 283.25,-266 297.47,-283.39 276.55,-451.02 291.25,-468 331.11,-514.05 367.4,-476.39 426,-493 438,-496.4 450.84,-501.09 462.05,-505.55"/>
<polygon fill="#000000" fill-opacity="0.200000" stroke="#000000" stroke-width="2" stroke-opacity="0.200000" points="461.12,-507.44 467.47,-507.75 462.7,-503.55 461.12,-507.44"/>
</g>
<!-- src/pages/TurbineDetailsPage.tsx&#45;&gt;src/features/turbine&#45;details/ControlsPanel.tsx -->
<g id="edge38" class="edge">
<title>src/pages/TurbineDetailsPage.tsx&#45;&gt;src/features/turbine&#45;details/ControlsPanel.tsx</title>
<path fill="none" stroke="#000000" stroke-width="2" stroke-opacity="0.200000" d="M275.66,-259.37C278.48,-261.21 281.05,-263.4 283.25,-266 299.08,-284.71 275.05,-357.61 291.25,-376 297.19,-382.75 305.25,-386.96 313.88,-389.52"/>
<polygon fill="#000000" fill-opacity="0.200000" stroke="#000000" stroke-width="2" stroke-opacity="0.200000" points="313.37,-391.55 319.69,-390.86 314.32,-387.46 313.37,-391.55"/>
</g>
<!-- src/pages/TurbineDetailsPage.tsx&#45;&gt;src/features/turbine&#45;details/TelemetryChart.tsx -->
<g id="edge39" class="edge">
<title>src/pages/TurbineDetailsPage.tsx&#45;&gt;src/features/turbine&#45;details/TelemetryChart.tsx</title>
<path fill="none" stroke="#000000" stroke-width="2" stroke-opacity="0.200000" d="M275.53,-260.87C278.27,-262.35 280.87,-264.05 283.25,-266 289.72,-271.28 284.68,-277.85 291.25,-283 297.14,-287.62 304.07,-290.92 311.3,-293.27"/>
<polygon fill="#000000" fill-opacity="0.200000" stroke="#000000" stroke-width="2" stroke-opacity="0.200000" points="310.61,-295.26 316.95,-294.81 311.72,-291.21 310.61,-295.26"/>
</g>
<!-- src/pages/TurbineDetailsPage.tsx&#45;&gt;src/features/turbine&#45;details/useTelemetryHistory.ts -->
<g id="edge41" class="edge">
<title>src/pages/TurbineDetailsPage.tsx&#45;&gt;src/features/turbine&#45;details/useTelemetryHistory.ts</title>
<path fill="none" stroke="#000000" stroke-width="2" stroke-opacity="0.200000" d="M275.71,-259.32C278.52,-261.18 281.07,-263.38 283.25,-266 293.29,-278.06 279.84,-396.22 291.25,-407 334.78,-448.13 368.61,-424.11 426,-407 444.55,-401.47 462.75,-389.01 475.53,-378.75"/>
<polygon fill="#000000" fill-opacity="0.200000" stroke="#000000" stroke-width="2" stroke-opacity="0.200000" points="476.8,-380.43 480.06,-374.98 474.11,-377.2 476.8,-380.43"/>
</g>
<!-- src/pages/TurbineDetailsPage.tsx&#45;&gt;src/features/turbine&#45;details/useAlertHistory.ts -->
<g id="edge40" class="edge">
<title>src/pages/TurbineDetailsPage.tsx&#45;&gt;src/features/turbine&#45;details/useAlertHistory.ts</title>
<path fill="none" stroke="#000000" stroke-width="2" stroke-opacity="0.200000" d="M275.48,-241.06C278.23,-239.6 280.84,-237.92 283.25,-236 289.47,-231.04 284.94,-224.83 291.25,-220 297.63,-215.12 305.18,-211.72 313,-209.36"/>
<polygon fill="#000000" fill-opacity="0.200000" stroke="#000000" stroke-width="2" stroke-opacity="0.200000" points="313.3,-211.45 318.6,-207.94 312.26,-207.38 313.3,-211.45"/>
</g>
<!-- src/pages/TurbineDetailsPage.tsx&#45;&gt;src/features/turbine&#45;details/useTurbineCommands.ts -->
<g id="edge42" class="edge">
<title>src/pages/TurbineDetailsPage.tsx&#45;&gt;src/features/turbine&#45;details/useTurbineCommands.ts</title>
<path fill="none" stroke="#000000" stroke-width="2" stroke-opacity="0.200000" d="M275.73,-245.37C283.07,-244.61 290.67,-243.81 298.21,-243.03"/>
<polygon fill="#000000" fill-opacity="0.200000" stroke="#000000" stroke-width="2" stroke-opacity="0.200000" points="298.24,-245.14 303.99,-242.43 297.81,-240.96 298.24,-245.14"/>
</g>
<!-- src/pages/TurbinePage.tsx&#45;&gt;src/api/api.ts -->
<g id="edge45" class="edge">
<title>src/pages/TurbinePage.tsx&#45;&gt;src/api/api.ts</title>
<path fill="none" stroke="#000000" stroke-width="2" stroke-opacity="0.200000" d="M261.78,-279.64C269.94,-277.3 277.71,-273.4 283.25,-267 295.38,-252.99 279.37,-198.22 291.25,-184 331.15,-136.25 381.14,-189.12 426,-146 439.48,-133.04 426.47,-119.88 439,-106 444.42,-99.99 451.63,-95.41 459.01,-91.95"/>
<polygon fill="#000000" fill-opacity="0.200000" stroke="#000000" stroke-width="2" stroke-opacity="0.200000" points="459.49,-94.02 464.22,-89.78 457.87,-90.15 459.49,-94.02"/>
</g>
<!-- src/pages/TurbinePage.tsx&#45;&gt;src/api/customFetch.ts -->
<g id="edge46" class="edge">
<title>src/pages/TurbinePage.tsx&#45;&gt;src/api/customFetch.ts</title>
<path fill="none" stroke="#000000" stroke-width="2" stroke-opacity="0.200000" d="M261.6,-279.85C269.87,-277.52 277.73,-273.56 283.25,-267 300.45,-246.54 275.61,-168.67 291.25,-147 329.09,-94.54 378.55,-135.97 426,-92 435.48,-83.22 428.01,-72.79 439,-66 462.91,-51.22 537.77,-61.36 565.5,-66 570.02,-66.76 574.68,-67.9 579.23,-69.23"/>
<polygon fill="#000000" fill-opacity="0.200000" stroke="#000000" stroke-width="2" stroke-opacity="0.200000" points="578.54,-71.21 584.9,-71.05 579.83,-67.21 578.54,-71.21"/>
</g>
<!-- src/pages/TurbinePage.tsx&#45;&gt;src/core/realtime/hooks.ts -->
<g id="edge47" class="edge">
<title>src/pages/TurbinePage.tsx&#45;&gt;src/core/realtime/hooks.ts</title>
<path fill="none" stroke="#000000" stroke-width="2" stroke-opacity="0.200000" d="M227.6,-292.12C240.28,-314.61 270.21,-370.81 283.25,-422 293.6,-462.63 276.85,-476.62 291.25,-516 304.1,-551.13 331.96,-585.22 349.69,-604.61"/>
<polygon fill="#000000" fill-opacity="0.200000" stroke="#000000" stroke-width="2" stroke-opacity="0.200000" points="348.02,-605.9 353.66,-608.85 351.09,-603.03 348.02,-605.9"/>
</g>
<!-- src/pages/TurbinePage.tsx&#45;&gt;src/utils/time.ts -->
<g id="edge44" class="edge">
<title>src/pages/TurbinePage.tsx&#45;&gt;src/utils/time.ts</title>
<path fill="none" stroke="#000000" stroke-width="2" stroke-opacity="0.200000" d="M227.09,-291.87C239,-314.31 267.91,-371.17 283.25,-422 289.24,-441.87 275.37,-454.64 291.25,-468 337.89,-507.23 514.42,-501.24 565.5,-468 594.86,-448.9 605.82,-406.56 609.81,-381.88"/>
<polygon fill="#000000" fill-opacity="0.200000" stroke="#000000" stroke-width="2" stroke-opacity="0.200000" points="611.87,-382.31 610.63,-376.08 607.71,-381.72 611.87,-382.31"/>
</g>
<!-- src/pages/TurbinePage.tsx&#45;&gt;src/ui/Badges.tsx -->
<g id="edge48" class="edge">
<title>src/pages/TurbinePage.tsx&#45;&gt;src/ui/Badges.tsx</title>
<path fill="none" stroke="#000000" stroke-width="2" stroke-opacity="0.200000" d="M227.33,-291.8C239.72,-314.11 269.56,-370.7 283.25,-422 287.51,-437.98 279.59,-484.27 291.25,-496 302.57,-507.38 399.76,-514.2 455.1,-517.19"/>
<polygon fill="#000000" fill-opacity="0.200000" stroke="#000000" stroke-width="2" stroke-opacity="0.200000" points="454.8,-519.28 460.9,-517.5 455.02,-515.09 454.8,-519.28"/>
</g>
<!-- src/vite&#45;env.d.ts -->
<g id="node28" class="node">
<title>src/vite&#45;env.d.ts</title>
<g id="a_node28"><a xlink:href="src/vite-env.d.ts" xlink:title="vite&#45;env.d.ts">
<path fill="#ccffcc" stroke="black" d="M75.08,-510.62C75.08,-510.62 22.42,-510.62 22.42,-510.62 19.21,-510.62 16,-507.42 16,-504.21 16,-504.21 16,-497.79 16,-497.79 16,-494.58 19.21,-491.38 22.42,-491.38 22.42,-491.38 75.08,-491.38 75.08,-491.38 78.29,-491.38 81.5,-494.58 81.5,-497.79 81.5,-497.79 81.5,-504.21 81.5,-504.21 81.5,-507.42 78.29,-510.62 75.08,-510.62"/>
<text text-anchor="start" x="24" y="-498.07" font-family="Helvetica,sans-Serif" font-size="9.00">vite&#45;env.d.ts</text>
</a>
</g>
</g>
</g>
</svg>
